<svg xmlns="http://www.w3.org/2000/svg" viewBox="0 0 416 423">
  <path d="M 216,3 L 209,2 L 204,4 L 198,4 L 190,8 L 183,15 L 179,21 L 176,30 L 177,45 L 182,54 L 192,63 L 192,67 L 178,97 L 178,99 L 173,108 L 173,110 L 171,112 L 171,114 L 163,130 L 163,132 L 157,143 L 157,145 L 153,151 L 134,153 L 128,155 L 118,155 L 111,157 L 105,157 L 104,158 L 98,158 L 91,160 L 83,160 L 82,161 L 76,161 L 75,162 L 66,163 L 64,161 L 64,159 L 59,150 L 52,143 L 42,138 L 31,137 L 21,140 L 12,146 L 6,154 L 2,165 L 2,177 L 3,180 L 9,190 L 13,194 L 20,199 L 28,202 L 40,202 L 46,199 L 48,199 L 53,195 L 55,195 L 118,260 L 115,278 L 114,279 L 111,297 L 110,298 L 110,302 L 109,303 L 109,307 L 108,308 L 108,313 L 107,314 L 107,318 L 105,324 L 105,329 L 103,335 L 103,340 L 102,341 L 102,346 L 101,347 L 100,355 L 99,356 L 93,356 L 87,358 L 80,362 L 71,372 L 67,383 L 67,394 L 69,401 L 78,413 L 89,419 L 92,419 L 93,420 L 104,420 L 115,416 L 123,409 L 126,405 L 126,403 L 129,398 L 131,391 L 131,386 L 130,385 L 128,374 L 130,372 L 205,327 L 210,327 L 216,330 L 233,341 L 248,349 L 256,355 L 271,363 L 280,370 L 285,372 L 287,374 L 287,377 L 284,385 L 284,392 L 285,393 L 286,400 L 290,407 L 298,415 L 304,418 L 311,420 L 321,420 L 332,416 L 340,409 L 344,403 L 347,395 L 348,385 L 346,381 L 345,375 L 341,368 L 332,360 L 326,357 L 316,356 L 315,355 L 314,345 L 311,337 L 311,330 L 309,325 L 308,315 L 306,310 L 306,305 L 304,298 L 304,293 L 302,289 L 302,285 L 300,279 L 300,273 L 299,272 L 297,260 L 359,196 L 363,196 L 369,200 L 376,202 L 385,202 L 392,200 L 401,195 L 408,187 L 412,177 L 413,167 L 412,166 L 411,158 L 402,145 L 390,138 L 373,138 L 366,141 L 358,148 L 350,162 L 333,161 L 332,160 L 326,160 L 325,159 L 319,159 L 318,158 L 312,158 L 311,157 L 303,157 L 302,156 L 291,155 L 290,154 L 285,154 L 278,152 L 263,151 L 261,149 L 258,139 L 252,128 L 252,126 L 248,119 L 248,117 L 245,112 L 242,103 L 224,66 L 224,63 L 234,54 L 239,44 L 240,29 L 235,17 L 231,12 L 225,7 Z" fill="#FFFFFF" fill-rule="evenodd"/>
</svg>
