<svg xmlns="http://www.w3.org/2000/svg" viewBox="0 0 674 371">
  <path d="M 564,56 L 563,57 L 558,57 L 551,59 L 541,64 L 529,75 L 526,79 L 519,95 L 518,104 L 517,105 L 517,113 L 518,114 L 518,119 L 520,126 L 525,136 L 533,147 L 545,155 L 559,160 L 570,161 L 571,160 L 577,160 L 590,154 L 592,154 L 604,145 L 613,132 L 614,127 L 617,121 L 618,101 L 617,100 L 616,93 L 610,80 L 600,68 L 587,60 L 577,57 L 573,57 L 572,56 Z M 672,98 L 671,97 L 671,90 L 669,86 L 669,82 L 667,78 L 667,75 L 659,55 L 656,52 L 655,49 L 645,35 L 627,19 L 613,11 L 611,11 L 597,5 L 594,5 L 591,3 L 586,3 L 585,2 L 559,1 L 558,2 L 546,3 L 545,4 L 535,6 L 521,13 L 519,13 L 508,21 L 506,21 L 505,23 L 491,36 L 488,41 L 484,44 L 484,46 L 475,60 L 475,62 L 472,66 L 471,70 L 468,75 L 467,82 L 465,86 L 466,89 L 464,96 L 464,102 L 413,166 L 410,171 L 407,173 L 399,183 L 398,186 L 389,196 L 386,201 L 371,201 L 370,202 L 366,202 L 365,203 L 361,203 L 357,205 L 354,205 L 340,212 L 335,216 L 316,206 L 313,203 L 301,197 L 299,195 L 293,193 L 287,188 L 265,177 L 250,167 L 248,167 L 230,157 L 224,152 L 220,151 L 218,149 L 213,147 L 197,136 L 176,125 L 171,121 L 149,110 L 148,108 L 144,106 L 143,100 L 134,79 L 124,67 L 122,66 L 120,63 L 111,57 L 95,50 L 87,49 L 86,48 L 80,48 L 79,47 L 65,47 L 41,55 L 28,63 L 26,66 L 19,72 L 18,75 L 12,81 L 9,86 L 3,104 L 3,108 L 1,114 L 1,126 L 2,127 L 2,133 L 5,141 L 6,148 L 12,161 L 16,165 L 19,170 L 33,183 L 45,189 L 60,194 L 83,194 L 84,193 L 92,192 L 99,189 L 102,189 L 107,186 L 112,188 L 140,205 L 142,205 L 153,212 L 158,214 L 161,217 L 184,229 L 185,231 L 195,237 L 199,238 L 225,255 L 231,257 L 237,262 L 248,268 L 250,268 L 257,273 L 283,287 L 292,294 L 302,299 L 304,301 L 309,320 L 316,334 L 323,343 L 326,345 L 326,347 L 339,357 L 357,366 L 367,367 L 368,368 L 387,369 L 388,368 L 393,368 L 398,366 L 402,366 L 419,359 L 435,346 L 440,341 L 448,329 L 448,327 L 453,319 L 457,305 L 458,286 L 464,282 L 466,279 L 469,278 L 481,268 L 484,264 L 488,263 L 499,253 L 516,242 L 525,234 L 537,227 L 553,215 L 554,216 L 575,216 L 576,215 L 594,213 L 614,205 L 627,197 L 630,194 L 633,193 L 646,180 L 650,174 L 655,169 L 658,163 L 658,161 L 660,159 L 661,155 L 665,149 L 670,132 L 670,123 L 671,122 L 671,115 L 672,114 Z M 370,219 L 391,219 L 392,220 L 400,221 L 411,226 L 415,230 L 421,233 L 433,247 L 440,262 L 441,270 L 443,275 L 443,291 L 442,292 L 441,302 L 438,311 L 432,322 L 425,331 L 413,341 L 398,348 L 390,349 L 389,350 L 373,350 L 372,349 L 366,349 L 357,346 L 351,343 L 350,341 L 348,341 L 342,336 L 335,328 L 333,327 L 330,322 L 330,312 L 334,308 L 344,308 L 356,318 L 369,325 L 378,326 L 379,327 L 380,326 L 385,326 L 389,324 L 392,324 L 398,321 L 404,316 L 406,316 L 414,305 L 419,289 L 419,279 L 418,278 L 418,275 L 416,273 L 416,268 L 408,255 L 400,248 L 394,245 L 388,245 L 385,244 L 384,242 L 364,243 L 359,241 L 358,238 L 356,237 L 355,234 L 356,226 L 359,224 L 360,222 Z M 66,67 L 82,67 L 83,68 L 91,69 L 94,71 L 96,71 L 97,73 L 98,72 L 99,74 L 101,74 L 106,77 L 113,85 L 116,87 L 119,91 L 119,94 L 120,95 L 120,100 L 117,105 L 115,106 L 107,106 L 100,98 L 88,90 L 79,89 L 78,88 L 69,88 L 62,90 L 54,96 L 52,96 L 51,99 L 48,101 L 48,103 L 44,110 L 43,119 L 42,120 L 42,125 L 45,134 L 55,148 L 57,148 L 59,150 L 69,154 L 80,155 L 84,157 L 87,162 L 87,168 L 85,171 L 81,174 L 75,174 L 74,175 L 63,174 L 56,172 L 48,168 L 33,156 L 33,154 L 31,153 L 27,146 L 21,128 L 21,113 L 22,112 L 22,108 L 25,99 L 33,86 L 44,76 L 50,72 L 52,72 L 57,69 L 65,68 Z M 560,35 L 578,35 L 579,36 L 591,38 L 602,43 L 611,49 L 624,62 L 630,71 L 637,87 L 638,96 L 639,97 L 639,104 L 640,105 L 638,126 L 634,139 L 622,157 L 613,166 L 601,174 L 589,179 L 586,179 L 581,181 L 575,181 L 574,182 L 559,182 L 558,181 L 553,181 L 552,180 L 545,179 L 530,172 L 522,166 L 514,158 L 506,147 L 498,128 L 497,118 L 496,117 L 496,101 L 497,100 L 498,89 L 504,73 L 507,70 L 513,60 L 521,52 L 532,44 L 545,38 L 548,38 L 553,36 L 559,36 Z" fill="#FFFFFF" fill-rule="evenodd"/>
</svg>
